<?xml version="1.0" standalone="no"?>
<!DOCTYPE svg PUBLIC "-//W3C//DTD SVG 20010904//EN"
 "http://www.w3.org/TR/2001/REC-SVG-20010904/DTD/svg10.dtd">
<svg version="1.0" xmlns="http://www.w3.org/2000/svg"
 width="210.000000pt" height="210.000000pt" viewBox="0 0 210.000000 210.000000"
 preserveAspectRatio="xMidYMid meet">

<g transform="translate(0.000000,210.000000) scale(0.100000,-0.100000)"
fill="#000000" stroke="none">
<path d="M1598 1749 l234 -236 -2 -344 -1 -344 -229 -230 c-127 -127 -230
-235 -230 -240 0 -5 108 98 240 230 l240 240 0 340 0 340 -242 240 -243 240
233 -236z"/>
<path d="M1000 1469 l0 -71 -180 4 c-147 2 -179 1 -175 -10 3 -8 5 -16 5 -18
0 -2 45 -4 101 -4 99 0 100 0 93 -22 -19 -63 -86 -171 -142 -230 -19 -20 -31
-41 -28 -47 10 -15 87 50 137 116 36 47 43 51 61 40 10 -7 35 -34 54 -60 21
-30 41 -47 49 -43 18 7 25 -15 25 -80 l0 -55 -190 3 c-165 3 -190 1 -188 -12
3 -13 33 -15 191 -18 l187 -2 0 -115 c0 -66 4 -116 10 -120 6 -3 19 -3 30 0
18 6 20 15 20 121 l0 114 195 0 c218 0 227 3 156 59 l-39 31 -22 -30 -21 -30
-135 0 -134 0 0 37 c0 20 7 45 17 55 15 17 14 19 -14 29 l-30 10 58 56 58 55
28 -20 c15 -11 48 -41 72 -65 46 -48 71 -51 71 -10 0 30 -49 77 -107 100 -24
10 -43 22 -43 26 0 13 41 70 64 89 16 14 40 18 104 18 95 0 104 11 46 55 l-36
27 -27 -26 c-26 -25 -32 -26 -139 -26 l-112 0 0 41 c0 27 6 46 17 54 14 10 10
14 -32 29 -27 9 -50 16 -52 16 -2 0 -3 -32 -3 -71z m150 -111 c0 -35 -124
-218 -148 -218 -7 0 -10 4 -7 10 10 17 -14 48 -63 81 -26 18 -49 34 -51 36
-10 7 32 80 52 90 31 15 217 17 217 1z"/>
<path d="M1905 1163 l5 -359 -255 -256 c-140 -140 -255 -259 -255 -264 0 -5
117 108 260 251 l260 260 0 357 c0 232 -4 359 -10 363 -7 4 -9 -109 -5 -352z"/>
</g>
</svg>
