<?xml version="1.0" standalone="no"?>
<!DOCTYPE svg PUBLIC "-//W3C//DTD SVG 20010904//EN"
 "http://www.w3.org/TR/2001/REC-SVG-20010904/DTD/svg10.dtd">
<svg version="1.0" xmlns="http://www.w3.org/2000/svg"
 width="210.000000pt" height="211.000000pt" viewBox="0 0 210.000000 211.000000"
 preserveAspectRatio="xMidYMid meet">

<g transform="translate(0.000000,211.000000) scale(0.100000,-0.100000)"
fill="#000000" stroke="none">
<path d="M1007 1489 l6 -61 -170 3 c-158 4 -170 3 -165 -13 4 -16 20 -18 167
-18 l162 0 1 -40 2 -40 -88 0 c-62 0 -94 4 -108 15 -10 8 -22 15 -26 15 -5 0
-8 -79 -8 -175 l0 -175 29 0 c21 0 32 6 36 20 6 18 15 20 84 20 l78 0 2 -51 1
-51 -184 4 c-177 4 -184 3 -177 -15 7 -17 19 -19 183 -17 l175 1 2 -83 c2 -90
8 -104 40 -93 19 6 21 14 21 90 l0 85 183 2 c108 2 182 7 181 13 0 5 -17 23
-37 39 l-37 30 -28 -27 c-27 -26 -32 -27 -145 -27 l-117 0 0 50 0 50 79 0 c61
0 80 -3 85 -15 7 -18 37 -20 54 -3 8 8 12 51 12 130 0 100 2 118 17 127 16 9
16 11 -2 31 -33 36 -54 44 -74 26 -13 -12 -38 -16 -94 -16 l-77 0 0 40 0 40
175 0 c194 0 205 5 140 55 l-36 27 -20 -26 c-20 -25 -23 -26 -140 -26 l-119 0
0 30 c0 18 6 33 15 36 26 10 17 22 -32 38 -26 9 -48 16 -49 16 -1 0 0 -27 3
-61z m2 -249 l1 -50 -80 0 -80 0 0 50 0 50 78 0 79 0 2 -50z m221 0 l0 -50
-80 0 -80 0 0 50 0 50 80 0 80 0 0 -50z m-222 -125 l2 -45 -80 0 -80 0 0 45 0
45 78 0 79 0 1 -45z m222 0 l0 -45 -80 0 -80 0 0 45 0 45 80 0 80 0 0 -45z"/>
<path d="M1912 1170 l-2 -365 -257 -260 -258 -260 263 260 262 260 -3 365 -2
365 -3 -365z"/>
<path d="M1835 1491 c-3 -6 -3 -155 0 -333 l6 -323 -235 -235 c-130 -129 -236
-239 -236 -245 0 -5 110 100 245 235 l245 245 0 332 c0 306 -4 357 -25 324z"/>
</g>
</svg>
