<?xml version="1.0" standalone="no"?>
<!DOCTYPE svg PUBLIC "-//W3C//DTD SVG 20010904//EN"
 "http://www.w3.org/TR/2001/REC-SVG-20010904/DTD/svg10.dtd">
<svg version="1.0" xmlns="http://www.w3.org/2000/svg"
 width="210.000000pt" height="211.000000pt" viewBox="0 0 210.000000 211.000000"
 preserveAspectRatio="xMidYMid meet">

<g transform="translate(0.000000,211.000000) scale(0.100000,-0.100000)"
fill="#000000" stroke="none">
<path d="M1445 1910 c38 -38 72 -70 74 -70 3 0 -26 32 -64 70 -38 39 -72 70
-74 70 -3 0 26 -31 64 -70z"/>
<path d="M1785 1570 l60 -65 -5 -338 -5 -339 -234 -234 c-129 -128 -231 -237
-227 -241 4 -4 115 101 247 234 l239 242 0 339 0 338 -67 64 -68 65 60 -65z"/>
<path d="M1296 1505 l-16 -25 -234 0 c-218 0 -235 1 -259 20 -14 11 -27 20
-29 20 -1 0 -2 -117 0 -260 l3 -260 25 0 c17 0 28 7 31 20 5 19 14 20 267 20
l262 0 -7 -70 c-4 -38 -17 -89 -28 -114 -16 -37 -25 -46 -53 -51 -18 -4 -46
-2 -61 4 -58 22 -82 4 -26 -19 17 -7 37 -24 46 -37 19 -29 51 -29 93 0 48 32
70 75 87 174 9 56 21 91 31 99 15 11 14 16 -17 48 l-35 36 -21 -20 c-19 -18
-35 -20 -153 -20 l-132 0 0 60 0 60 129 0 c72 0 132 4 136 9 3 5 -11 22 -31
38 l-37 28 -15 -23 c-13 -20 -23 -22 -98 -22 l-84 0 0 50 0 49 132 3 c76 2
133 7 135 13 1 6 -14 21 -34 35 l-36 25 -15 -23 c-13 -20 -23 -22 -99 -22
l-84 0 3 48 3 47 153 3 c168 3 180 8 118 56 l-34 26 -16 -25z m-296 -105 l0
-50 -90 0 -90 0 0 50 0 50 90 0 90 0 0 -50z m0 -130 l0 -50 -90 0 -90 0 0 50
0 50 90 0 90 0 0 -50z m0 -140 l0 -60 -90 0 -90 0 0 60 0 60 90 0 90 0 0 -60z"/>
<path d="M1912 1165 l-2 -370 -252 -255 -253 -255 263 260 262 260 -1 245 c-1
135 -5 299 -9 365 -4 85 -7 12 -8 -250z"/>
<path d="M1165 1011 c-9 -15 94 -161 110 -155 17 7 24 35 15 60 -10 25 -117
107 -125 95z"/>
<path d="M985 1000 c-3 -5 7 -29 23 -53 17 -23 37 -60 46 -80 11 -27 21 -38
33 -35 27 5 29 58 3 90 -32 41 -98 90 -105 78z"/>
<path d="M695 963 c-3 -21 -17 -57 -31 -80 -20 -35 -22 -46 -13 -67 33 -72 74
-17 74 98 0 86 -17 115 -30 49z"/>
<path d="M820 977 c0 -7 5 -18 11 -24 5 -5 21 -41 33 -79 25 -75 48 -92 67
-51 13 28 6 45 -48 120 -33 45 -63 61 -63 34z"/>
</g>
</svg>
