<?xml version="1.0" standalone="no"?>
<!DOCTYPE svg PUBLIC "-//W3C//DTD SVG 20010904//EN"
 "http://www.w3.org/TR/2001/REC-SVG-20010904/DTD/svg10.dtd">
<svg version="1.0" xmlns="http://www.w3.org/2000/svg"
 width="211.000000pt" height="211.000000pt" viewBox="0 0 211.000000 211.000000"
 preserveAspectRatio="xMidYMid meet">

<g transform="translate(0.000000,211.000000) scale(0.100000,-0.100000)"
fill="#000000" stroke="none">
<path d="M1608 1749 l234 -236 -2 -344 -1 -344 -237 -238 c-130 -130 -232
-237 -227 -237 6 0 117 107 248 238 l237 237 0 340 0 340 -242 240 -243 240
233 -236z"/>
<path d="M1910 1158 l0 -363 -257 -260 -258 -260 268 265 267 265 0 357 c0
232 -4 358 -10 358 -6 0 -10 -127 -10 -362z"/>
<path d="M1010 1354 l0 -156 -185 4 c-155 3 -185 2 -183 -10 2 -11 37 -14 186
-12 l182 1 0 -177 0 -176 -160 4 c-133 3 -160 1 -155 -10 3 -7 5 -14 5 -15 0
-1 166 -1 370 1 208 1 370 6 370 11 0 5 -18 24 -40 41 l-40 32 -26 -31 -26
-31 -114 0 -114 0 0 175 0 175 190 0 c105 0 190 4 190 8 0 5 -17 23 -39 40
l-38 31 -29 -30 -28 -29 -123 0 -123 0 0 125 c0 107 2 125 16 125 30 0 8 23
-39 41 l-47 19 0 -156z"/>
</g>
</svg>
