<?xml version="1.0" standalone="no"?>
<!DOCTYPE svg PUBLIC "-//W3C//DTD SVG 20010904//EN"
 "http://www.w3.org/TR/2001/REC-SVG-20010904/DTD/svg10.dtd">
<svg version="1.0" xmlns="http://www.w3.org/2000/svg"
 width="210.000000pt" height="208.000000pt" viewBox="0 0 210.000000 208.000000"
 preserveAspectRatio="xMidYMid meet">

<g transform="translate(0.000000,208.000000) scale(0.100000,-0.100000)"
fill="#000000" stroke="none">
<path d="M1390 1905 c19 -19 36 -35 39 -35 3 0 -10 16 -29 35 -19 19 -36 35
-39 35 -3 0 10 -16 29 -35z"/>
<path d="M1713 1584 l108 -110 -1 -340 0 -339 -238 -237 c-130 -131 -232 -238
-227 -238 5 0 117 107 247 237 l238 238 0 335 0 335 -117 115 -118 115 108
-111z"/>
<path d="M867 1501 c-39 -71 -109 -151 -178 -207 -33 -26 -56 -50 -51 -52 15
-5 72 26 105 56 l27 26 0 -91 c0 -66 4 -94 14 -102 24 -20 56 4 56 39 l0 30
85 0 c47 0 85 -2 85 -4 0 -7 -122 -82 -185 -113 -33 -17 -86 -39 -117 -49 -32
-10 -58 -22 -58 -27 0 -21 154 24 257 75 34 17 46 19 56 9 9 -9 5 -18 -22 -39
-58 -47 -152 -101 -233 -134 -43 -18 -74 -36 -70 -40 21 -21 251 73 333 135
42 33 46 34 57 17 9 -16 5 -24 -26 -52 -81 -73 -213 -147 -319 -179 -41 -12
-58 -29 -29 -29 28 0 188 51 235 75 26 13 78 44 114 69 l66 45 7 -33 c7 -39
-1 -73 -24 -98 -17 -20 -60 -22 -129 -9 -37 7 -43 6 -43 -8 0 -10 14 -22 35
-30 20 -7 41 -21 48 -32 17 -27 58 -24 104 10 102 74 95 208 -15 299 -26 21
-55 43 -65 48 -15 9 -12 13 25 34 32 18 43 20 46 10 3 -7 22 -48 44 -91 46
-92 107 -163 195 -226 55 -39 68 -44 86 -35 12 5 30 13 40 16 30 9 19 20 -61
58 -69 32 -172 108 -172 127 0 8 114 65 134 67 31 3 36 5 36 13 0 5 -13 19
-30 31 l-30 21 -58 -45 c-32 -25 -65 -46 -73 -46 -22 0 -61 76 -64 121 l-2 39
93 0 c75 0 94 -3 94 -14 0 -20 16 -29 40 -21 17 5 20 15 20 70 0 50 4 66 18
75 15 9 14 13 -17 40 l-35 30 -21 -20 c-18 -17 -35 -20 -115 -20 l-94 0 29 30
c15 16 43 34 62 41 40 13 41 27 2 58 -28 22 -31 22 -48 7 -15 -14 -37 -16
-117 -14 -88 3 -96 4 -71 15 36 17 34 25 -11 51 l-38 21 -27 -48z m206 -111
l-37 -50 -101 0 c-56 0 -105 3 -109 7 -3 4 13 26 36 50 l42 43 103 0 103 0
-37 -50z m-43 -120 l0 -50 -95 0 -95 0 0 50 0 50 95 0 95 0 0 -50z m260 0 l0
-50 -100 0 -100 0 0 38 c0 55 12 62 112 62 l88 0 0 -50z"/>
<path d="M1892 1135 l-2 -370 -257 -260 -258 -260 263 260 262 260 -3 370 -2
370 -3 -370z"/>
</g>
</svg>
