<?xml version="1.0" standalone="no"?>
<!DOCTYPE svg PUBLIC "-//W3C//DTD SVG 20010904//EN"
 "http://www.w3.org/TR/2001/REC-SVG-20010904/DTD/svg10.dtd">
<svg version="1.0" xmlns="http://www.w3.org/2000/svg"
 width="210.000000pt" height="210.000000pt" viewBox="0 0 210.000000 210.000000"
 preserveAspectRatio="xMidYMid meet">

<g transform="translate(0.000000,210.000000) scale(0.100000,-0.100000)"
fill="#000000" stroke="none">
<path d="M800 1479 l0 -62 -84 6 c-80 6 -84 5 -79 -14 5 -17 15 -19 85 -19
l79 0 -32 -47 c-18 -27 -61 -76 -96 -110 -34 -34 -58 -65 -52 -68 12 -8 130
75 158 111 l21 27 0 -76 c0 -81 11 -98 51 -77 17 9 19 22 19 102 l0 91 36 -46
c41 -52 74 -62 74 -22 0 26 -25 54 -78 87 -18 11 -31 22 -29 24 6 6 268 6 274
0 8 -8 -118 -128 -185 -176 -61 -44 -74 -60 -49 -60 24 0 162 88 205 131 l42
42 0 -87 c0 -92 9 -109 46 -88 16 9 18 23 15 104 l-2 93 36 -40 c20 -22 48
-55 62 -72 27 -35 57 -43 67 -17 11 28 -22 69 -92 114 -39 25 -71 48 -71 53
-1 4 46 7 104 7 117 0 131 10 74 50 l-30 22 -23 -21 c-17 -16 -35 -21 -74 -21
-51 0 -52 1 -52 29 0 16 6 31 15 35 27 10 16 24 -30 39 l-45 16 0 -61 0 -61
-60 6 c-39 4 -60 3 -60 -4 0 -5 -16 2 -35 17 l-36 27 -22 -22 c-13 -11 -35
-21 -50 -21 -24 0 -27 4 -27 35 0 19 5 35 10 35 6 0 10 4 10 10 0 9 -62 40
-81 40 -5 0 -9 -28 -9 -61z"/>
<path d="M1912 1160 l-2 -365 -255 -255 c-140 -140 -252 -256 -250 -258 2 -2
121 113 264 255 l261 258 -1 170 c-1 94 -5 258 -9 365 -6 179 -7 164 -8 -170z"/>
<path d="M1848 1494 c-5 -4 -8 -156 -8 -338 l0 -331 -237 -237 c-130 -131
-235 -239 -232 -242 3 -3 114 104 247 237 l242 242 -2 339 c-2 186 -6 334 -10
330z"/>
<path d="M1370 1150 l-12 -22 -364 4 c-277 2 -364 0 -364 -9 0 -6 5 -15 10
-18 6 -4 91 -6 190 -5 l180 1 0 -136 c0 -150 1 -148 -66 -120 -19 8 -48 24
-64 35 l-30 21 27 40 c14 21 32 39 39 39 28 0 24 21 -8 40 -44 27 -53 25 -69
-12 -23 -56 -107 -177 -164 -235 -30 -31 -52 -60 -47 -65 10 -10 121 77 164
128 l33 40 59 -38 c105 -68 216 -98 413 -113 l93 -8 30 33 c16 18 30 36 30 40
0 4 -69 5 -152 3 -84 -3 -169 -1 -188 4 l-35 9 -3 67 -3 67 121 0 c132 0 146
7 89 49 l-31 23 -22 -21 c-18 -17 -35 -21 -89 -21 l-67 0 0 51 c0 75 7 79 154
79 69 0 126 -2 126 -6 0 -3 -11 -22 -25 -42 -45 -66 -24 -71 46 -12 26 22 54
40 63 40 36 0 28 22 -26 69 l-26 23 -12 -22z"/>
</g>
</svg>
